<svg xmlns="http://www.w3.org/2000/svg" xmlns:xlink="http://www.w3.org/1999/xlink" width="240" zoomAndPan="magnify" viewBox="0 0 180 60" height="80" preserveAspectRatio="xMidYMid meet" version="1.2"><defs><clipPath id="e39edd6597"><path d="M 53.652344 6.015625 L 126.34375 6.015625 L 126.34375 29.792969 L 53.652344 29.792969 Z M 53.652344 6.015625 "/></clipPath></defs><g id="3bae5b71b4"><g style="fill:#ff3131;fill-opacity:1;"><g transform="translate(53.863396, 42.843472)"><path style="stroke:none" d="M 1.875 -11.65625 L 5.03125 -11.65625 C 5.882812 -11.65625 6.453125 -11.445312 6.734375 -11.03125 C 7.023438 -10.613281 7.0625 -9.929688 6.84375 -8.984375 L 6.734375 -8.46875 C 6.472656 -7.363281 5.921875 -6.703125 5.078125 -6.484375 C 5.535156 -6.359375 5.804688 -6.0625 5.890625 -5.59375 C 5.984375 -5.132812 5.945312 -4.523438 5.78125 -3.765625 C 5.488281 -2.523438 5.082031 -1.585938 4.5625 -0.953125 C 4.050781 -0.316406 3.3125 0 2.34375 0 L -0.8125 0 Z M 3.625 -7.265625 C 3.820312 -7.265625 3.972656 -7.335938 4.078125 -7.484375 C 4.179688 -7.640625 4.265625 -7.851562 4.328125 -8.125 L 4.59375 -9.296875 C 4.6875 -9.671875 4.566406 -9.859375 4.234375 -9.859375 L 3.75 -9.859375 L 3.15625 -7.265625 Z M 2.171875 -2.046875 C 2.773438 -2.046875 3.140625 -2.335938 3.265625 -2.921875 L 3.609375 -4.359375 C 3.691406 -4.710938 3.703125 -4.976562 3.640625 -5.15625 C 3.578125 -5.34375 3.414062 -5.4375 3.15625 -5.4375 L 2.71875 -5.4375 L 1.9375 -2.0625 Z M 2.171875 -2.046875 "/></g></g><g style="fill:#ff3131;fill-opacity:1;"><g transform="translate(60.362275, 42.843472)"><path style="stroke:none" d="M -1.125 0 L 2.6875 -11.65625 L 6.640625 -11.65625 L 5.0625 0 L 2.84375 0 L 3.125 -1.890625 L 1.703125 -1.890625 L 1.140625 0 Z M 2.328125 -3.75 L 3.375 -3.75 L 4.21875 -9.671875 L 4.109375 -9.671875 Z M 2.328125 -3.75 "/></g></g><g style="fill:#ff3131;fill-opacity:1;"><g transform="translate(66.94256, 42.843472)"><path style="stroke:none" d="M -0.8125 0 L 1.875 -11.65625 L 4.28125 -11.65625 L 4.0625 -6.078125 L 5.34375 -11.65625 L 7.59375 -11.65625 L 4.90625 0 L 2.640625 0 L 2.8125 -5.828125 L 1.46875 0 Z M -0.8125 0 "/></g></g><g style="fill:#ff3131;fill-opacity:1;"><g transform="translate(73.699221, 42.843472)"><path style="stroke:none" d="M 1.5625 0.109375 C 0.71875 0.109375 0.160156 -0.1875 -0.109375 -0.78125 C -0.390625 -1.375 -0.390625 -2.269531 -0.109375 -3.46875 L 1.046875 -8.484375 C 1.296875 -9.566406 1.722656 -10.382812 2.328125 -10.9375 C 2.941406 -11.488281 3.722656 -11.765625 4.671875 -11.765625 C 5.441406 -11.765625 6 -11.609375 6.34375 -11.296875 C 6.695312 -10.992188 6.882812 -10.546875 6.90625 -9.953125 C 6.9375 -9.367188 6.847656 -8.613281 6.640625 -7.6875 L 4.375 -7.6875 L 4.609375 -8.734375 C 4.671875 -9.015625 4.679688 -9.226562 4.640625 -9.375 C 4.609375 -9.53125 4.488281 -9.609375 4.28125 -9.609375 C 3.84375 -9.609375 3.554688 -9.320312 3.421875 -8.75 L 2.125 -3.109375 C 2.039062 -2.753906 2.019531 -2.484375 2.0625 -2.296875 C 2.101562 -2.117188 2.238281 -2.03125 2.46875 -2.03125 C 2.695312 -2.03125 2.878906 -2.117188 3.015625 -2.296875 C 3.148438 -2.484375 3.257812 -2.753906 3.34375 -3.109375 L 3.71875 -4.78125 L 3.09375 -4.78125 L 3.5625 -6.78125 L 6.40625 -6.78125 L 4.84375 0 L 3.90625 0 L 3.734375 -0.96875 C 3.148438 -0.25 2.425781 0.109375 1.5625 0.109375 Z M 1.5625 0.109375 "/></g></g><g style="fill:#ff3131;fill-opacity:1;"><g transform="translate(80.279505, 42.843472)"><path style="stroke:none" d="M -0.8125 0 L 1.875 -11.65625 L 4.203125 -11.65625 L 1.984375 -1.984375 L 4.375 -1.984375 L 3.921875 0 Z M -0.8125 0 "/></g></g><g style="fill:#ff3131;fill-opacity:1;"><g transform="translate(85.665838, 42.843472)"><path style="stroke:none" d="M -1.125 0 L 2.6875 -11.65625 L 6.640625 -11.65625 L 5.0625 0 L 2.84375 0 L 3.125 -1.890625 L 1.703125 -1.890625 L 1.140625 0 Z M 2.328125 -3.75 L 3.375 -3.75 L 4.21875 -9.671875 L 4.109375 -9.671875 Z M 2.328125 -3.75 "/></g></g><g style="fill:#7ed957;fill-opacity:1;"><g transform="translate(92.248946, 42.843472)"><path style="stroke:none" d=""/></g></g><g style="fill:#000000;fill-opacity:1;"><g transform="translate(95.429284, 42.843472)"><path style="stroke:none" d="M 0.171875 0 L 2.34375 -9.40625 L 0.96875 -9.40625 L 1.484375 -11.65625 L 6.578125 -11.65625 L 6.0625 -9.40625 L 4.671875 -9.40625 L 2.515625 0 Z M 0.171875 0 "/></g></g><g style="fill:#000000;fill-opacity:1;"><g transform="translate(100.802051, 42.843472)"><path style="stroke:none" d="M 1.875 -11.65625 L 5.453125 -11.65625 C 6.023438 -11.65625 6.4375 -11.523438 6.6875 -11.265625 C 6.9375 -11.003906 7.0625 -10.640625 7.0625 -10.171875 C 7.0625 -9.710938 6.984375 -9.117188 6.828125 -8.390625 C 6.671875 -7.734375 6.460938 -7.21875 6.203125 -6.84375 C 5.953125 -6.476562 5.59375 -6.222656 5.125 -6.078125 C 5.457031 -6.003906 5.671875 -5.828125 5.765625 -5.546875 C 5.867188 -5.265625 5.863281 -4.882812 5.75 -4.40625 L 4.703125 0 L 2.4375 0 L 3.46875 -4.5625 C 3.550781 -4.882812 3.535156 -5.085938 3.421875 -5.171875 C 3.316406 -5.265625 3.097656 -5.3125 2.765625 -5.3125 L 1.546875 0 L -0.8125 0 Z M 3.8125 -7.34375 C 4.132812 -7.34375 4.378906 -7.691406 4.546875 -8.390625 C 4.617188 -8.703125 4.65625 -8.929688 4.65625 -9.078125 C 4.664062 -9.234375 4.640625 -9.34375 4.578125 -9.40625 C 4.515625 -9.46875 4.414062 -9.5 4.28125 -9.5 L 3.75 -9.5 L 3.25 -7.34375 Z M 3.8125 -7.34375 "/></g></g><g style="fill:#000000;fill-opacity:1;"><g transform="translate(107.273793, 42.843472)"><path style="stroke:none" d="M -1.125 0 L 2.6875 -11.65625 L 6.640625 -11.65625 L 5.0625 0 L 2.84375 0 L 3.125 -1.890625 L 1.703125 -1.890625 L 1.140625 0 Z M 2.328125 -3.75 L 3.375 -3.75 L 4.21875 -9.671875 L 4.109375 -9.671875 Z M 2.328125 -3.75 "/></g></g><g style="fill:#000000;fill-opacity:1;"><g transform="translate(113.854078, 42.843472)"><path style="stroke:none" d="M 1.875 -11.65625 L 5.09375 -11.65625 C 5.914062 -11.65625 6.484375 -11.421875 6.796875 -10.953125 C 7.109375 -10.492188 7.164062 -9.8125 6.96875 -8.90625 L 5.734375 -3.453125 C 5.472656 -2.304688 5.070312 -1.441406 4.53125 -0.859375 C 4 -0.285156 3.265625 0 2.328125 0 L -0.8125 0 Z M 2.421875 -2.0625 C 2.835938 -2.0625 3.097656 -2.269531 3.203125 -2.6875 L 4.59375 -8.6875 C 4.65625 -8.957031 4.675781 -9.15625 4.65625 -9.28125 C 4.644531 -9.414062 4.59375 -9.503906 4.5 -9.546875 C 4.40625 -9.585938 4.242188 -9.609375 4.015625 -9.609375 L 3.765625 -9.609375 L 2.015625 -2.0625 Z M 2.421875 -2.0625 "/></g></g><g style="fill:#000000;fill-opacity:1;"><g transform="translate(120.5429, 42.843472)"><path style="stroke:none" d="M -0.8125 0 L 1.875 -11.65625 L 6.546875 -11.65625 L 6.03125 -9.40625 L 3.734375 -9.40625 L 3.203125 -7.140625 L 5.40625 -7.140625 L 4.890625 -4.9375 L 2.703125 -4.9375 L 2.078125 -2.265625 L 4.515625 -2.265625 L 4 0 Z M -0.8125 0 "/></g></g><g style="fill:#000000;fill-opacity:1;"><g transform="translate(74.205636, 52.182663)"><path style="stroke:none" d="M 2.046875 -1.109375 L 3.0625 -4.484375 L 4.09375 -4.484375 L 2.53125 0 L 1.578125 0 L 0.015625 -4.484375 L 1.046875 -4.484375 Z M 2.046875 -1.109375 "/></g></g><g style="fill:#000000;fill-opacity:1;"><g transform="translate(78.32346, 52.182663)"><path style="stroke:none" d="M 3.09375 -1.9375 L 1.328125 -1.9375 L 1.328125 -0.734375 L 3.40625 -0.734375 L 3.40625 0 L 0.40625 0 L 0.40625 -4.484375 L 3.390625 -4.484375 L 3.390625 -3.734375 L 1.328125 -3.734375 L 1.328125 -2.65625 L 3.09375 -2.65625 Z M 3.09375 -1.9375 "/></g></g><g style="fill:#000000;fill-opacity:1;"><g transform="translate(81.866201, 52.182663)"><path style="stroke:none" d="M 4.046875 0 L 3.125 0 L 1.328125 -2.953125 L 1.328125 0 L 0.40625 0 L 0.40625 -4.484375 L 1.328125 -4.484375 L 3.125 -1.53125 L 3.125 -4.484375 L 4.046875 -4.484375 Z M 4.046875 0 "/></g></g><g style="fill:#000000;fill-opacity:1;"><g transform="translate(86.313079, 52.182663)"><path style="stroke:none" d="M 3.765625 -3.734375 L 2.390625 -3.734375 L 2.390625 0 L 1.46875 0 L 1.46875 -3.734375 L 0.125 -3.734375 L 0.125 -4.484375 L 3.765625 -4.484375 Z M 3.765625 -3.734375 "/></g></g><g style="fill:#000000;fill-opacity:1;"><g transform="translate(90.209481, 52.182663)"><path style="stroke:none" d="M 3.78125 -4.484375 L 3.78125 -1.53125 C 3.78125 -1.039062 3.628906 -0.648438 3.328125 -0.359375 C 3.023438 -0.078125 2.609375 0.0625 2.078125 0.0625 C 1.546875 0.0625 1.125 -0.0703125 0.8125 -0.34375 C 0.507812 -0.625 0.359375 -1.007812 0.359375 -1.5 L 0.359375 -4.484375 L 1.28125 -4.484375 L 1.28125 -1.515625 C 1.28125 -1.222656 1.347656 -1.007812 1.484375 -0.875 C 1.628906 -0.738281 1.828125 -0.671875 2.078125 -0.671875 C 2.585938 -0.671875 2.847656 -0.945312 2.859375 -1.5 L 2.859375 -4.484375 Z M 3.78125 -4.484375 "/></g></g><g style="fill:#000000;fill-opacity:1;"><g transform="translate(94.35498, 52.182663)"><path style="stroke:none" d="M 2.0625 -1.640625 L 1.328125 -1.640625 L 1.328125 0 L 0.40625 0 L 0.40625 -4.484375 L 2.0625 -4.484375 C 2.59375 -4.484375 3 -4.363281 3.28125 -4.125 C 3.570312 -3.882812 3.71875 -3.550781 3.71875 -3.125 C 3.71875 -2.820312 3.648438 -2.566406 3.515625 -2.359375 C 3.390625 -2.148438 3.191406 -1.988281 2.921875 -1.875 L 3.890625 -0.046875 L 3.890625 0 L 2.890625 0 Z M 1.328125 -2.390625 L 2.0625 -2.390625 C 2.289062 -2.390625 2.46875 -2.445312 2.59375 -2.5625 C 2.726562 -2.675781 2.796875 -2.835938 2.796875 -3.046875 C 2.796875 -3.253906 2.734375 -3.421875 2.609375 -3.546875 C 2.492188 -3.671875 2.3125 -3.734375 2.0625 -3.734375 L 1.328125 -3.734375 Z M 1.328125 -2.390625 "/></g></g><g style="fill:#000000;fill-opacity:1;"><g transform="translate(98.374395, 52.182663)"><path style="stroke:none" d="M 3.09375 -1.9375 L 1.328125 -1.9375 L 1.328125 -0.734375 L 3.40625 -0.734375 L 3.40625 0 L 0.40625 0 L 0.40625 -4.484375 L 3.390625 -4.484375 L 3.390625 -3.734375 L 1.328125 -3.734375 L 1.328125 -2.65625 L 3.09375 -2.65625 Z M 3.09375 -1.9375 "/></g></g><g style="fill:#000000;fill-opacity:1;"><g transform="translate(101.917136, 52.182663)"><path style="stroke:none" d="M 2.71875 -1.171875 C 2.71875 -1.347656 2.65625 -1.484375 2.53125 -1.578125 C 2.414062 -1.671875 2.195312 -1.769531 1.875 -1.875 C 1.550781 -1.976562 1.296875 -2.078125 1.109375 -2.171875 C 0.597656 -2.453125 0.34375 -2.820312 0.34375 -3.28125 C 0.34375 -3.53125 0.410156 -3.75 0.546875 -3.9375 C 0.691406 -4.125 0.890625 -4.269531 1.140625 -4.375 C 1.398438 -4.476562 1.6875 -4.53125 2 -4.53125 C 2.320312 -4.53125 2.609375 -4.472656 2.859375 -4.359375 C 3.109375 -4.242188 3.300781 -4.082031 3.4375 -3.875 C 3.570312 -3.664062 3.640625 -3.425781 3.640625 -3.15625 L 2.71875 -3.15625 C 2.71875 -3.363281 2.65625 -3.519531 2.53125 -3.625 C 2.40625 -3.738281 2.222656 -3.796875 1.984375 -3.796875 C 1.753906 -3.796875 1.578125 -3.75 1.453125 -3.65625 C 1.328125 -3.5625 1.265625 -3.4375 1.265625 -3.28125 C 1.265625 -3.132812 1.335938 -3.007812 1.484375 -2.90625 C 1.640625 -2.8125 1.859375 -2.722656 2.140625 -2.640625 C 2.660156 -2.484375 3.039062 -2.285156 3.28125 -2.046875 C 3.519531 -1.816406 3.640625 -1.53125 3.640625 -1.1875 C 3.640625 -0.789062 3.492188 -0.484375 3.203125 -0.265625 C 2.910156 -0.046875 2.515625 0.0625 2.015625 0.0625 C 1.671875 0.0625 1.359375 0 1.078125 -0.125 C 0.796875 -0.25 0.582031 -0.421875 0.4375 -0.640625 C 0.289062 -0.859375 0.21875 -1.113281 0.21875 -1.40625 L 1.140625 -1.40625 C 1.140625 -0.914062 1.429688 -0.671875 2.015625 -0.671875 C 2.242188 -0.671875 2.414062 -0.710938 2.53125 -0.796875 C 2.65625 -0.890625 2.71875 -1.015625 2.71875 -1.171875 Z M 2.71875 -1.171875 "/></g></g><g clip-rule="nonzero" clip-path="url(#e39edd6597)"><path style=" stroke:none;fill-rule:nonzero;fill:#ff3131;fill-opacity:1;" d="M 71.066406 23.175781 L 71.070312 23.175781 L 71.070312 23.171875 L 71.089844 23.167969 C 71.882812 22.757812 72.59375 22.472656 73.351562 22.296875 C 74.105469 22.121094 74.90625 22.054688 75.878906 22.074219 L 76.292969 22.03125 L 76.308594 22.027344 C 76.789062 21.941406 76.980469 21.933594 77.15625 21.929688 C 77.347656 21.925781 77.511719 21.921875 78.488281 21.675781 L 78.527344 21.667969 C 79.09375 21.523438 79.675781 21.378906 80.015625 21.101562 C 80.554688 20.65625 81.019531 20.191406 81.457031 19.757812 C 82.894531 18.320312 84.058594 17.160156 86.917969 17.300781 C 88.941406 17.398438 90.886719 18.25 92.902344 19.136719 C 94.628906 19.894531 96.410156 20.679688 98.265625 20.976562 L 98.285156 20.980469 L 98.285156 20.976562 L 98.292969 20.980469 C 100.167969 21.167969 101.230469 20.773438 102.128906 20.4375 C 103.210938 20.035156 104.09375 19.703125 105.652344 20.269531 C 106.320312 20.511719 106.515625 20.789062 106.710938 21.066406 C 106.785156 21.175781 106.863281 21.285156 107.097656 21.382812 C 108.34375 21.753906 109.511719 22.230469 110.652344 22.695312 C 111.742188 23.136719 112.800781 23.570312 113.8125 23.863281 C 114.183594 23.96875 114.96875 24.148438 115.792969 24.332031 C 116.875 24.574219 118.027344 24.832031 118.492188 24.992188 C 119.058594 25.1875 119.445312 25.417969 119.789062 25.621094 C 120.320312 25.9375 120.695312 26.160156 121.691406 25.828125 C 121.730469 25.8125 121.773438 25.804688 121.8125 25.800781 C 122.125 25.746094 122.527344 25.769531 122.980469 25.796875 C 123.644531 25.835938 124.429688 25.882812 124.820312 25.675781 C 124.871094 25.648438 124.914062 25.621094 124.953125 25.589844 C 125.066406 25.5 125.15625 25.386719 125.191406 25.265625 C 125.222656 25.171875 125.214844 25.066406 125.15625 24.960938 C 125.140625 24.925781 125.117188 24.894531 125.09375 24.863281 C 124.925781 24.648438 124.425781 24.660156 123.894531 24.679688 C 123.699219 24.683594 123.503906 24.691406 123.300781 24.683594 L 123.308594 24.121094 L 123.300781 24.6875 C 123.128906 24.683594 122.972656 24.605469 122.871094 24.480469 C 122.460938 24.03125 122.050781 24.050781 121.601562 24.074219 C 120.996094 24.101562 120.34375 24.132812 119.53125 23.605469 C 118.996094 23.261719 118.066406 22.769531 117.101562 22.347656 C 116.324219 22.003906 115.539062 21.710938 114.957031 21.589844 C 113.628906 21.3125 110.648438 19.285156 109.5625 18.546875 C 109.414062 18.445312 109.753906 18.675781 109.339844 18.398438 L 109.660156 17.929688 L 109.339844 18.398438 C 109.160156 18.277344 109.070312 18.066406 109.09375 17.859375 C 109.121094 17.1875 109.152344 16.773438 109.175781 16.453125 C 109.234375 15.675781 109.253906 15.449219 109.035156 14.125 L 109.597656 14.035156 L 109.035156 14.125 C 108.984375 13.816406 109.195312 13.523438 109.503906 13.472656 L 109.511719 13.472656 L 113.074219 12.71875 L 113.191406 13.273438 L 113.074219 12.714844 C 113.171875 12.695312 113.265625 12.703125 113.355469 12.726562 C 113.722656 12.824219 114.210938 13.019531 114.714844 13.222656 C 115.304688 13.457031 115.917969 13.707031 116.285156 13.777344 L 116.578125 13.488281 C 116.597656 13.464844 116.621094 13.445312 116.644531 13.429688 C 117 13.128906 117.160156 13.097656 117.273438 13.078125 L 117.285156 13.074219 C 117.324219 13.066406 117.246094 13.042969 117.585938 12.550781 C 117 11.453125 116.777344 11.03125 116.6875 10.730469 C 116.613281 10.46875 116.628906 10.335938 116.652344 10.125 C 116.667969 9.96875 116.691406 9.742188 116.644531 9.238281 L 115.152344 8.445312 L 115.152344 8.441406 L 115.152344 8.445312 C 115.140625 8.4375 115.128906 8.433594 115.121094 8.425781 L 114.535156 8.117188 L 114.800781 7.617188 L 114.535156 8.121094 C 114.433594 8.066406 114.355469 7.984375 114.300781 7.890625 C 114.285156 7.867188 114.269531 7.839844 114.257812 7.816406 L 114.253906 7.816406 C 114.25 7.808594 114.246094 7.804688 114.242188 7.796875 C 114.230469 7.78125 114.210938 7.753906 114.160156 7.691406 C 114.128906 7.652344 114.101562 7.617188 114.074219 7.578125 C 113.972656 7.535156 113.882812 7.457031 113.820312 7.359375 C 113.804688 7.355469 113.785156 7.355469 113.761719 7.351562 L 113.746094 7.347656 C 113.558594 7.316406 113.234375 7.265625 112.972656 7.238281 L 112.726562 7.210938 L 112.726562 7.214844 C 112.597656 7.238281 112.472656 7.222656 112.363281 7.171875 C 112.265625 7.140625 112.097656 7.25 111.945312 7.351562 C 111.863281 7.410156 111.785156 7.460938 111.675781 7.523438 L 111.679688 7.523438 C 111.609375 7.5625 111.53125 7.585938 111.457031 7.59375 C 111.3125 7.613281 111.121094 7.597656 110.878906 7.578125 C 110.457031 7.542969 109.832031 7.496094 109.375 7.597656 L 109.371094 7.601562 C 109.351562 7.613281 109.335938 7.625 109.316406 7.632812 C 109.25 7.671875 109.183594 7.707031 109.121094 7.722656 C 109.027344 7.761719 108.929688 7.777344 108.835938 7.765625 C 108.382812 7.761719 107.761719 7.917969 107.125 8.078125 C 106.570312 8.21875 106.003906 8.359375 105.460938 8.414062 C 104.871094 8.472656 104.371094 8.4375 103.871094 8.402344 C 103.242188 8.355469 102.609375 8.308594 101.851562 8.488281 C 100.742188 8.746094 100.375 9.132812 99.964844 9.5625 C 99.585938 9.957031 99.179688 10.382812 98.359375 10.808594 C 96.753906 11.636719 95.328125 11.925781 93.882812 11.90625 C 92.460938 11.882812 91.0625 11.5625 89.464844 11.167969 C 86.566406 10.449219 84.671875 10.691406 82.5625 10.960938 C 81.378906 11.113281 80.125 11.273438 78.59375 11.289062 C 77.882812 11.292969 77.289062 11.292969 76.78125 11.292969 C 75.304688 11.292969 74.601562 11.292969 73.972656 11.445312 C 73.40625 11.582031 72.820312 11.859375 71.703125 12.386719 C 71.070312 12.6875 70.277344 13.0625 69.257812 13.523438 C 67.558594 14.289062 66.292969 14.464844 64.53125 14.710938 C 64.191406 14.757812 63.828125 14.808594 63.316406 14.886719 C 62.390625 15.027344 61.222656 15.054688 60.0625 14.945312 C 59.011719 14.847656 57.964844 14.636719 57.101562 14.296875 C 56.921875 14.226562 56.714844 14.117188 56.484375 13.996094 C 55.890625 13.683594 55.066406 13.25 54.855469 13.507812 C 54.800781 13.570312 54.890625 13.679688 55.03125 13.796875 C 55.546875 14.222656 56.527344 14.578125 56.964844 14.734375 L 56.773438 15.269531 L 56.964844 14.734375 C 56.980469 14.738281 56.992188 14.746094 57.007812 14.75 L 57.058594 14.769531 C 59.402344 15.625 61.628906 15.941406 63.839844 15.757812 C 66.058594 15.574219 68.261719 14.890625 70.558594 13.757812 C 71.511719 13.285156 72.347656 12.90625 73.25 12.691406 C 74.171875 12.46875 75.148438 12.425781 76.347656 12.628906 L 76.253906 13.1875 L 76.347656 12.628906 C 76.65625 12.679688 76.863281 12.972656 76.8125 13.285156 C 76.808594 13.304688 76.804688 13.324219 76.796875 13.34375 L 76.125 15.992188 C 75.96875 17.171875 75.128906 18.097656 73.863281 18.816406 C 72.496094 19.589844 70.617188 20.132812 68.597656 20.488281 C 67.480469 21.136719 66.355469 22.367188 65.347656 23.476562 C 64.597656 24.300781 63.90625 25.058594 63.273438 25.519531 C 62.5 26.082031 61.917969 26.097656 61.382812 26.113281 C 61 26.125 60.660156 26.136719 60.261719 26.632812 L 59.820312 26.28125 L 60.265625 26.632812 C 60.15625 26.769531 59.996094 26.839844 59.835938 26.847656 C 59.5 26.875 59.15625 26.988281 58.851562 27.148438 C 58.535156 27.316406 58.269531 27.53125 58.113281 27.753906 C 58.089844 27.789062 58.070312 27.820312 58.058594 27.851562 C 58.007812 27.960938 58.007812 28.066406 58.042969 28.160156 C 58.085938 28.28125 58.175781 28.390625 58.296875 28.472656 C 58.339844 28.503906 58.382812 28.527344 58.429688 28.550781 C 59.484375 29.046875 61.917969 27.949219 63.46875 27.25 C 63.828125 27.085938 64.140625 26.945312 64.386719 26.847656 C 64.699219 26.71875 65.425781 26.226562 66.183594 25.710938 C 67.132812 25.066406 68.132812 24.386719 68.671875 24.199219 C 69.5625 23.886719 69.972656 23.695312 70.820312 23.292969 Z M 73.609375 23.402344 C 72.945312 23.554688 72.320312 23.808594 71.609375 24.171875 C 71.59375 24.183594 71.574219 24.191406 71.554688 24.199219 L 71.3125 23.6875 L 71.554688 24.199219 L 71.304688 24.320312 C 70.425781 24.734375 70 24.933594 69.046875 25.265625 C 68.640625 25.40625 67.707031 26.042969 66.820312 26.644531 C 66 27.203125 65.222656 27.730469 64.8125 27.898438 C 64.570312 27.996094 64.273438 28.128906 63.9375 28.28125 C 62.199219 29.0625 59.476562 30.292969 57.953125 29.574219 C 57.847656 29.523438 57.746094 29.464844 57.648438 29.398438 C 57.34375 29.1875 57.101562 28.890625 56.976562 28.550781 C 56.84375 28.1875 56.839844 27.78125 57.035156 27.371094 C 57.074219 27.285156 57.125 27.195312 57.1875 27.109375 C 57.449219 26.734375 57.851562 26.394531 58.320312 26.148438 C 58.691406 25.949219 59.109375 25.804688 59.535156 25.742188 C 60.191406 25.015625 60.742188 25 61.351562 24.980469 C 61.714844 24.972656 62.113281 24.960938 62.609375 24.601562 C 63.148438 24.207031 63.800781 23.492188 64.511719 22.710938 C 65.589844 21.527344 66.792969 20.207031 68.085938 19.476562 C 68.152344 19.429688 68.226562 19.398438 68.308594 19.386719 L 68.40625 19.945312 L 68.308594 19.386719 C 70.25 19.050781 72.042969 18.546875 73.304688 17.832031 C 74.265625 17.285156 74.898438 16.628906 75 15.847656 C 75 15.8125 75.007812 15.777344 75.015625 15.742188 L 75.546875 13.664062 C 74.785156 13.59375 74.132812 13.644531 73.511719 13.792969 C 72.710938 13.984375 71.941406 14.335938 71.058594 14.773438 C 68.636719 15.972656 66.292969 16.691406 63.933594 16.886719 C 61.5625 17.082031 59.179688 16.75 56.675781 15.835938 L 56.621094 15.816406 C 56.609375 15.8125 56.59375 15.808594 56.582031 15.800781 C 56.082031 15.621094 54.96875 15.214844 54.308594 14.671875 C 53.667969 14.140625 53.382812 13.503906 53.980469 12.785156 C 54.78125 11.820312 56.074219 12.5 57.011719 12.992188 C 57.210938 13.097656 57.390625 13.191406 57.511719 13.242188 C 58.28125 13.542969 59.21875 13.730469 60.164062 13.820312 C 61.226562 13.921875 62.296875 13.894531 63.148438 13.765625 C 63.515625 13.710938 63.957031 13.648438 64.375 13.589844 C 66.042969 13.359375 67.238281 13.191406 68.789062 12.492188 C 69.832031 12.019531 70.605469 11.65625 71.21875 11.363281 C 72.398438 10.804688 73.019531 10.511719 73.710938 10.34375 C 74.46875 10.164062 75.214844 10.164062 76.78125 10.164062 C 77.285156 10.164062 77.875 10.164062 78.585938 10.15625 C 80.046875 10.144531 81.265625 9.988281 82.421875 9.839844 C 84.640625 9.554688 86.640625 9.300781 89.738281 10.066406 C 91.269531 10.449219 92.605469 10.753906 93.894531 10.773438 C 95.160156 10.792969 96.417969 10.535156 97.839844 9.800781 C 98.5 9.460938 98.835938 9.109375 99.148438 8.78125 C 99.6875 8.21875 100.167969 7.714844 101.59375 7.382812 C 102.519531 7.167969 103.238281 7.21875 103.953125 7.269531 C 104.410156 7.304688 104.867188 7.335938 105.347656 7.285156 C 105.792969 7.242188 106.324219 7.109375 106.851562 6.976562 C 107.492188 6.816406 108.128906 6.65625 108.695312 6.636719 C 108.792969 6.578125 108.886719 6.539062 108.976562 6.527344 C 109.632812 6.339844 110.4375 6.40625 110.96875 6.445312 C 111.089844 6.457031 111.175781 6.46875 111.226562 6.472656 C 111.253906 6.453125 111.285156 6.433594 111.316406 6.414062 C 111.699219 6.15625 112.113281 5.878906 112.710938 6.085938 C 112.820312 6.089844 112.953125 6.097656 113.09375 6.113281 C 113.386719 6.144531 113.742188 6.195312 113.9375 6.230469 L 113.953125 6.234375 C 114.246094 6.285156 114.359375 6.304688 114.484375 6.375 L 114.496094 6.386719 C 114.605469 6.367188 114.703125 6.402344 114.84375 6.519531 C 114.863281 6.535156 114.882812 6.550781 114.902344 6.570312 L 114.761719 6.714844 L 114.902344 6.570312 C 115.105469 6.769531 115.132812 6.902344 115.09375 7.046875 C 115.152344 7.121094 115.175781 7.152344 115.199219 7.1875 L 115.648438 7.421875 C 115.660156 7.429688 115.671875 7.433594 115.683594 7.441406 L 117.425781 8.367188 C 117.589844 8.449219 117.714844 8.609375 117.738281 8.808594 L 117.175781 8.878906 L 117.738281 8.808594 C 117.84375 9.640625 117.804688 10.007812 117.777344 10.242188 C 117.769531 10.324219 117.765625 10.371094 117.777344 10.414062 C 117.832031 10.613281 118.054688 11.027344 118.648438 12.136719 L 118.726562 12.285156 C 118.855469 12.480469 118.855469 12.738281 118.707031 12.9375 L 118.253906 12.597656 L 118.703125 12.933594 C 117.828125 14.101562 117.730469 14.148438 117.488281 14.191406 L 117.46875 14.195312 L 117.464844 14.179688 L 117.464844 14.195312 C 117.457031 14.199219 117.484375 14.191406 117.386719 14.28125 L 117.375 14.296875 L 117.371094 14.296875 L 117.363281 14.300781 L 116.925781 14.734375 C 116.824219 14.847656 116.679688 14.921875 116.519531 14.929688 L 116.5 14.363281 L 116.515625 14.925781 C 115.972656 14.945312 115.109375 14.601562 114.296875 14.273438 C 113.878906 14.105469 113.480469 13.945312 113.171875 13.855469 L 110.238281 14.476562 C 110.386719 15.488281 110.363281 15.78125 110.308594 16.535156 C 110.285156 16.824219 110.261719 17.179688 110.238281 17.636719 C 111.304688 18.363281 114.089844 20.25 115.183594 20.480469 C 115.855469 20.621094 116.71875 20.941406 117.558594 21.308594 C 118.566406 21.753906 119.5625 22.277344 120.148438 22.65625 C 120.652344 22.984375 121.117188 22.960938 121.546875 22.941406 C 122.226562 22.910156 122.851562 22.878906 123.554688 23.554688 C 123.65625 23.554688 123.761719 23.550781 123.863281 23.546875 C 124.6875 23.523438 125.460938 23.5 125.988281 24.167969 C 126.054688 24.253906 126.109375 24.339844 126.15625 24.421875 C 126.367188 24.820312 126.386719 25.226562 126.273438 25.597656 C 126.167969 25.945312 125.941406 26.253906 125.648438 26.480469 C 125.554688 26.554688 125.457031 26.621094 125.355469 26.671875 C 124.683594 27.035156 123.722656 26.976562 122.914062 26.929688 C 122.527344 26.90625 122.183594 26.882812 122.015625 26.914062 C 120.550781 27.394531 119.992188 27.0625 119.210938 26.597656 C 118.917969 26.421875 118.585938 26.226562 118.125 26.066406 C 117.695312 25.917969 116.585938 25.671875 115.542969 25.4375 C 114.707031 25.25 113.910156 25.070312 113.496094 24.949219 C 112.402344 24.632812 111.328125 24.195312 110.226562 23.746094 C 109.105469 23.289062 107.953125 22.820312 106.777344 22.472656 C 106.746094 22.464844 106.71875 22.457031 106.6875 22.441406 C 106.136719 22.21875 105.960938 21.96875 105.78125 21.714844 C 105.691406 21.585938 105.601562 21.457031 105.265625 21.332031 C 104.097656 20.910156 103.386719 21.175781 102.523438 21.496094 C 101.507812 21.875 100.3125 22.324219 98.179688 22.105469 C 98.15625 22.105469 98.132812 22.101562 98.109375 22.097656 L 98.199219 21.539062 L 98.109375 22.097656 C 96.101562 21.777344 94.246094 20.964844 92.449219 20.175781 C 90.53125 19.332031 88.675781 18.515625 86.867188 18.429688 C 84.503906 18.316406 83.5 19.316406 82.253906 20.558594 C 81.804688 21.007812 81.324219 21.488281 80.734375 21.972656 C 80.191406 22.417969 79.492188 22.59375 78.800781 22.765625 L 78.761719 22.777344 C 77.675781 23.050781 77.445312 23.054688 77.183594 23.0625 C 77.054688 23.066406 76.910156 23.066406 76.515625 23.140625 C 76.488281 23.148438 76.457031 23.152344 76.429688 23.15625 L 76.402344 22.921875 L 76.429688 23.15625 L 76.011719 23.199219 C 75.972656 23.207031 75.933594 23.210938 75.898438 23.210938 L 75.898438 23.207031 C 75.003906 23.183594 74.285156 23.242188 73.609375 23.402344 Z M 114.507812 6.980469 L 114.691406 6.792969 Z M 109.125 7.058594 Z M 109.125 7.058594 L 109.257812 6.964844 L 109.125 7.058594 "/></g></g></svg>